<?xml version="1.0" encoding="utf-8"?>
<!-- Generator: Adobe Illustrator 15.0.0, SVG Export Plug-In  -->
<!DOCTYPE svg PUBLIC "-//W3C//DTD SVG 1.1//EN" "http://www.w3.org/Graphics/SVG/1.1/DTD/svg11.dtd" [
	<!ENTITY ns_flows "http://ns.adobe.com/Flows/1.0/">
]>
<svg version="1.1"
	 xmlns="http://www.w3.org/2000/svg" xmlns:xlink="http://www.w3.org/1999/xlink" xmlns:a="http://ns.adobe.com/AdobeSVGViewerExtensions/3.0/"
	 x="0px" y="0px" width="100px" height="20px" viewBox="-3 -4 100 20" enable-background="new -3 -4 100 20" xml:space="preserve">
<defs>
</defs>
<path fill="#FFFFFF" d="M3.992,4.344V3.234c0-0.578,0.055-0.891,0.883-0.891h1.109V0.125H4.211c-2.133,0-2.883,1.078-2.883,2.883
	v1.336H0v2.219h1.328V13h2.664V6.563h1.773L6,4.344H3.992z"/>
<path fill="#FFFFFF" d="M28.656,3.188c-0.453,0.195-0.945,0.336-1.453,0.391c0.523-0.313,0.922-0.805,1.109-1.391
	c-0.484,0.289-1.031,0.5-1.602,0.609C26.25,2.305,25.594,2,24.867,2c-1.398,0-2.523,1.133-2.523,2.523
	c0,0.195,0.023,0.391,0.063,0.578c-2.094-0.109-3.961-1.109-5.203-2.641c-0.219,0.375-0.344,0.805-0.344,1.273
	c0,0.875,0.445,1.648,1.125,2.102c-0.414-0.016-0.805-0.133-1.141-0.32c0,0.008,0,0.023,0,0.031c0,1.227,0.867,2.242,2.023,2.477
	c-0.211,0.055-0.438,0.086-0.664,0.086c-0.164,0-0.32-0.016-0.477-0.039c0.32,1,1.25,1.727,2.359,1.75
	c-0.867,0.68-1.953,1.078-3.133,1.078c-0.211,0-0.406-0.008-0.609-0.031C17.461,11.586,18.789,12,20.219,12
	c4.641,0,7.18-3.844,7.18-7.18c0-0.109,0-0.219-0.008-0.328C27.883,4.133,28.313,3.688,28.656,3.188z"/>
<path fill="#FFFFFF" d="M44.844,10.445c0,1.367-1.297,1.836-2.461,1.836c-1.25,0-2.938-0.578-2.938-2.078
	c0-1.625,1.906-2.031,3.188-2.031c0.133,0,0.258,0,0.391,0.016C43.82,8.742,44.844,9.352,44.844,10.445z M43.906,3.711
	c0,0.953-0.367,1.727-1.438,1.727c-1.391,0-2.172-1.859-2.172-3.047c0-0.922,0.5-1.828,1.523-1.828
	C43.266,0.563,43.906,2.523,43.906,3.711z M42.883,0c-0.492,0-0.984,0.055-1.461,0.156c-1.422,0.313-2.57,1.578-2.57,3.063
	c0,1.57,1.313,2.688,2.828,2.688c0.18,0,0.359-0.016,0.547-0.039c-0.078,0.242-0.172,0.414-0.172,0.672
	c0,0.438,0.242,0.828,0.5,1.164c-1.398,0.039-3.57,0.398-4.266,1.805C38.125,9.836,38,10.195,38,10.563
	C38,12.375,40.109,13,41.57,13c1.156,0,2.383-0.25,3.281-1.023c0.664-0.578,1.094-1.305,1.094-2.203
	c0-2.188-2.344-2.586-2.344-3.594c0-1.031,1.75-1.188,1.75-3.258c0-0.875-0.391-1.82-1.164-2.305h1.055L46.297,0H42.883z M51,2h-2V0
	h-1v2h-2v1h2v2h1V3h2V2z"/>
<path fill="#FFFFFF" d="M70,6c0-3.313-2.688-6-6-6s-6,2.688-6,6c0,2.461,1.477,4.57,3.594,5.5c-0.016-0.422-0.008-0.93,0.102-1.383
	c0,0,0.117-0.484,0.773-3.266c-0.195-0.383-0.195-0.953-0.195-0.953c0-0.891,0.516-1.555,1.156-1.555
	c0.547,0,0.813,0.414,0.813,0.906c0,0.547-0.352,1.367-0.531,2.125c-0.148,0.641,0.32,1.156,0.945,1.156
	c1.141,0,1.906-1.461,1.906-3.188c0-1.32-0.891-2.305-2.5-2.305c-1.82,0-2.953,1.359-2.953,2.875c0,0.523,0.156,0.891,0.398,1.18
	c0.109,0.133,0.125,0.18,0.086,0.336c-0.031,0.109-0.094,0.375-0.125,0.477c-0.039,0.156-0.164,0.211-0.297,0.156
	c-0.836-0.344-1.227-1.266-1.227-2.297c0-1.703,1.438-3.75,4.281-3.75c2.297,0,3.805,1.664,3.805,3.438
	c0,2.359-1.313,4.117-3.242,4.117c-0.648,0-1.258-0.352-1.461-0.75c-0.352,1.383-0.422,1.648-0.422,1.648
	c-0.125,0.461-0.383,0.922-0.609,1.281C62.844,11.914,63.406,12,64,12C67.313,12,70,9.313,70,6z"/>
<path fill="#FFFFFF" d="M83.727,4.883h-2.578v7.742h2.578V4.883z M83.891,2.492c-0.008-0.758-0.555-1.336-1.438-1.336
	C81.578,1.156,81,1.734,81,2.492c0,0.742,0.555,1.336,1.422,1.336h0.016l0,0C83.336,3.828,83.898,3.234,83.891,2.492z M93,8.188
	c0-2.375-1.266-3.484-2.961-3.484c-1.391,0-2,0.773-2.336,1.305h0.016V4.883h-2.57c0,0,0.031,0.727,0,7.742l0,0h2.57v-4.32
	c0-0.234,0.023-0.461,0.086-0.633c0.188-0.461,0.609-0.938,1.32-0.938c0.93,0,1.305,0.711,1.305,1.75v4.141H93V8.188z"/>
</svg>
